<svg preserveAspectRatio="none" width="100%" height="100%" overflow="visible" style="display: block;" viewBox="0 0 13.0667 13.3333" fill="none" xmlns="http://www.w3.org/2000/svg">
<path id="icon" d="M0.709093 3.67276C1.80606 1.49395 4.06056 0 6.66667 0C8.4636 0 9.97267 0.660633 11.1273 1.73637L9.21513 3.64849C8.52427 2.9879 7.6454 2.65151 6.66667 2.65151C4.93028 2.65151 3.46056 3.82425 2.93637 5.4C2.803 5.8 2.72724 6.22727 2.72724 6.66667C2.72724 7.10607 2.803 7.53333 2.93637 7.93333C3.46056 9.50907 4.93028 10.6818 6.66667 10.6818C7.5636 10.6818 8.32727 10.4455 8.92427 10.0455C9.63027 9.57273 10.1 8.86667 10.2545 8.03333H6.66667V5.45453H12.9454C13.0243 5.89087 13.0667 6.34547 13.0667 6.8182C13.0667 8.84847 12.3394 10.5575 11.0787 11.7182C9.97573 12.7364 8.46667 13.3333 6.66667 13.3333C4.06056 13.3333 1.80606 11.8394 0.709093 9.6606C0.257587 8.7606 0 7.7424 0 6.66667C0 5.59093 0.257587 4.57274 0.709093 3.67276Z" fill="var(--fill-0, #191919)"/>
</svg>
