<svg preserveAspectRatio="none" width="100%" height="100%" overflow="visible" style="display: block;" viewBox="0 0 12 14.5" fill="none" xmlns="http://www.w3.org/2000/svg">
<path id="icon" d="M11 8.5C11 9.48891 10.7068 10.4556 10.1574 11.2779C9.60794 12.1001 8.82705 12.741 7.91342 13.1194C6.99979 13.4978 5.99446 13.5969 5.02455 13.4039C4.05465 13.211 3.16373 12.7348 2.46447 12.0355C1.76521 11.3363 1.289 10.4454 1.09608 9.47545C0.90315 8.50555 1.00217 7.50021 1.38061 6.58658C1.75904 5.67295 2.39991 4.89206 3.22215 4.34265C4.0444 3.79324 5.0111 3.5 6 3.5H9.09105L7.29885 5.2927L8 6L11 3L8 0L7.29885 0.707L9.09255 2.5H6C4.81331 2.5 3.65328 2.85189 2.66658 3.51118C1.67989 4.17047 0.910851 5.10754 0.456726 6.2039C0.00259972 7.30026 -0.11622 8.50666 0.115291 9.67054C0.346802 10.8344 0.918247 11.9035 1.75736 12.7426C2.59648 13.5818 3.66558 14.1532 4.82946 14.3847C5.99335 14.6162 7.19975 14.4974 8.2961 14.0433C9.39246 13.5892 10.3295 12.8201 10.9888 11.8334C11.6481 10.8467 12 9.68669 12 8.5H11Z" fill="var(--fill-0, #8F8F8F)"/>
</svg>
